<?xml version="1.0" encoding="UTF-8"?>
<svg id="Layer_1" xmlns="http://www.w3.org/2000/svg" version="1.1" viewBox="0 0 110 158">
  <!-- Generator: Adobe Illustrator 29.6.1, SVG Export Plug-In . SVG Version: 2.1.1 Build 9)  -->
  <defs>
    <style>
      .st0 {
        fill: #3c5a78;
      }

      .st1 {
        fill: #0e2543;
      }

      .st2 {
        fill: #fff;
      }

      .st3 {
        fill: #09173e;
      }
    </style>
  </defs>
  <path class="st1" d="M93.5,13.1c-9.7-7.7-19.4-10.8-31.1-11.1-7.4-.2-12.3.4-18.2,1.7C27.3,7.6,9,21.2,3.9,39.4c-1,3.4-1.6,7.6-1.6,11.7l1.2-.1-1.2.1v72.6h24.5v-33.8c5.4,3,13,5.9,23.8,6,11.4.1,24.3-2.9,33.5-11.2l.8-.8-.7.7.2-.2c.2-.2-.4.3-.1,0l.7-.7-.8.8,1-1c.2-.2.3-3.7-.3-8.5,0-8.1,5.7-13.9,16.9-16.2l3.4-.9c1.3-2.2,2.3-10.1,2.1-16.4-.4-9.4-5.8-22-13.8-28.4Z"/>
  <path class="st1" d="M92.9,12.6c-9.4-7.4-19-10.5-30.5-10.8-7.3-.2-12,.3-18.1,1.7C27.4,7.3,10.1,19.9,4.2,39c-1,3.4-1.8,7.6-1.8,12.1l.2,72.6h24.2v-33.9c5.4,3,13,5.9,23.8,6,11.4,0,24.3-3,33.6-11.3l.8-.8-.8.8.8-.8-.8.8.9-.9c.2-.2.3-3.7-.3-8.5,0-8.1,5.8-13.9,16.9-16.2l3.3-.7c1.3-2.2,2.4-10.4,2.2-16.7-.3-9.4-6.3-22.5-14.3-28.9h0Z"/>
  <path class="st0" d="M65.1,16c-2.2-1.6-7.8-.3-12.3,3.8-4.5,4.1-6.6,9.2-4.4,11.4,2.3,2.4,8,.8,12.3-2.8,5.3-4.1,7.3-10.1,4.4-12.4Z"/>
  <path class="st0" d="M87.4,27.1c-2.5-.4-5.7.5-9.1,3-5.2,3.6-9.5,9.6-7.6,12.2,1.9,2.9,8,1.2,12.1-1.9,4.9-3.6,8.2-9,5.5-12.2,0,0-.9-1.1-.9-1.1Z"/>
  <path class="st0" d="M36.6,29.8c-2.3-1.8-6.8-.8-11,2.2-4.3,3.1-7.5,8.2-6,11.5l1,1.4c3,1.1,7.7-.9,10.7-3.2,4.9-3.7,7.7-9.2,5.3-11.9Z"/>
  <path class="st2" d="M54.3,56.6c-8.1,0-16.1,5.8-16.1,12.5,0,4.2,3.6,9.7,12.5,9.7,7.6,0,16-5.2,16.2-12.3.1-3.6-3.5-9.9-12.6-9.9Z"/>
  <path class="st0" d="M23.1,34.4c-3.7,3.6-6.6,9-3.2,10.5,2.5,1.2,7.7-.6,11.6-3.7,4.3-3.5,7.3-8.3,5.5-10.9-2.2-2.9-9.1-.6-13.9,4.1Z"/>
  <path class="st3" d="M20.22,141.51v-6.75h7.07l-6.94-6.75h-10.71l-6.94,7.53v10.97l6.94,7.33h10.71l4.67-4.48v-4.8c.65.71,1.56,1.1,2.86,1.1,2.47,0,4.35-1.69,4.35-4.61s-1.88-4.74-4.48-4.74c-1.17,0-1.95.32-2.86.97v-.91h-2.92v13.17l-1.69.71v-3.05c-.39.19-.78.32-1.17.32-1.49,0-3.11-1.3-3.11-3.11,0-1.56,1.49-3.11,3.11-3.11.39,0,.78.06,1.17.19,0,0-.06,0-.06,0ZM27.1,138.59c1.17,0,2.01.91,2.01,2.4,0,1.36-.84,2.34-2.01,2.34s-2.08-.91-2.08-2.34.91-2.4,2.08-2.4Z"/>
  <path class="st3" d="M37.16,136.7h2.21v2.14h-2.14v6.68h-3.18v-6.68h-1.36v-2.21h1.43v-.19c0-2.01,1.36-3.44,3.76-3.44.78,0,1.62.19,2.27.52l-.78,2.01c-.19-.26-.58-.39-1.04-.39-.65,0-1.23.45-1.23,1.36v.19s.06,0,.06,0Z"/>
  <path class="st3" d="M39.75,144.75l.91-1.95c.78.52,2.01.84,3.18.84s1.56-.32,1.56-.78c0-1.36-5.45.06-5.45-3.37,0-1.69,1.49-3.11,4.28-3.11,1.36,0,2.73.19,3.57.71l-.84,2.01c-.91-.45-1.75-.65-2.53-.65-1.17,0-1.75.32-1.75.78,0,1.43,5.32,0,5.32,3.5,0,1.69-1.49,2.99-4.28,2.99-1.62,0-3.18-.39-3.96-.91,0,0,0-.06,0-.06Z"/>
  <path class="st0" d="M59.29,137.81c0,2.47-1.62,4.28-4.8,4.28h-2.66v3.5h-2.08v-11.75h4.74c3.05,0,4.8,1.56,4.8,3.96ZM57.08,137.87c0-1.17-.91-2.21-2.27-2.21h-2.99v4.61h2.6c1.75,0,2.66-.91,2.66-2.34v-.06Z"/>
  <path class="st0" d="M68.63,140.08v5.45h-1.95v-1.04c-.52.71-1.49,1.17-2.79,1.17-1.95,0-3.44-.91-3.44-2.73s1.23-2.66,3.7-2.66h2.4v-.26c0-1.1-.84-1.75-2.08-1.75-.97,0-1.95.26-2.79.84l-.97-1.56c.97-.65,2.34-1.1,3.89-1.1,2.53,0,4.02,1.17,4.02,3.63h0ZM66.56,142.87v-1.23h-1.95c-1.36,0-2.08.45-2.08,1.23s.71,1.23,1.62,1.23c1.17,0,2.01-.45,2.4-1.23Z"/>
  <path class="st0" d="M71.23,133.26h2.08v12.27h-2.08v-12.27Z"/>
  <path class="st0" d="M84.27,141.7h-6.94c.19,1.23,1.3,2.14,2.79,2.14,1.04,0,1.82-.26,2.47-.97l1.1,1.23c-.78.91-1.95,1.49-3.57,1.49-2.99,0-4.87-1.69-4.87-4.54,0-2.66,1.88-4.61,4.48-4.61s4.54,1.75,4.54,4.61c0,0,0,.65,0,.65ZM77.33,140.34h5.06c-.19-1.23-1.04-2.14-2.53-2.14-1.3,0-2.34.84-2.53,2.14Z"/>
  <path class="st0" d="M91.47,145.2c-.45.39-1.3.45-2.08.45-1.82,0-2.99-.91-2.99-2.6v-4.8h-1.43v-1.69h1.36v-1.95h2.21v2.01h2.47v1.62h-2.47v4.61c0,.71.45,1.1,1.1,1.1.45,0,.78-.06,1.23-.39l.58,1.62h0Z"/>
  <path class="st0" d="M98.29,145.2c-.45.39-1.17.45-1.95.45-1.82,0-2.86-.91-2.86-2.6v-4.8h-1.49v-1.62h1.56v-2.01h2.08v2.01h2.21v1.62h-2.21v4.61c0,.71.52,1.1,1.3,1.1.39,0,.71-.13.97-.39l.45,1.62h-.06,0Z"/>
  <path class="st0" d="M107.5,141.7h-6.62c.19,1.23,1.23,2.21,2.73,2.21,1.1,0,1.75-.26,2.4-.97l1.1,1.23c-.71.84-2.01,1.49-3.57,1.49-2.92,0-4.61-1.75-4.61-4.48s1.69-4.74,4.35-4.74c2.73-.06,4.28,1.88,4.28,4.54v.71h-.06,0ZM101.01,140.34h4.74c-.13-1.23-1.17-2.14-2.47-2.14s-2.08.78-2.4,2.14h.13Z"/>
</svg>